<svg id="visual" viewBox="0 0 1900 600" width="1900" height="600" xmlns="http://www.w3.org/2000/svg" xmlns:xlink="http://www.w3.org/1999/xlink" version="1.1"><rect x="0" y="0" width="1900" height="600" fill="#4487FF"></rect><defs><linearGradient id="grad1_0" x1="68.4%" y1="100%" x2="100%" y2="0%"><stop offset="-13.333333333333329%" stop-color="#4487ff" stop-opacity="1"></stop><stop offset="113.33333333333334%" stop-color="#4487ff" stop-opacity="1"></stop></linearGradient></defs><defs><linearGradient id="grad2_0" x1="0%" y1="100%" x2="31.6%" y2="0%"><stop offset="-13.333333333333329%" stop-color="#4487ff" stop-opacity="1"></stop><stop offset="113.33333333333334%" stop-color="#4487ff" stop-opacity="1"></stop></linearGradient></defs><g transform="translate(1900, 600)"><path d="M-510 0C-498.2 -84.9 -486.5 -169.9 -452.9 -261.5C-419.4 -353.1 -364.1 -451.4 -285 -493.6C-205.9 -535.8 -102.9 -521.9 0 -508L0 0Z" fill="#F3F6FB"></path></g><g transform="translate(0, 0)"><path d="M567 0C553.3 98.5 539.7 197 493.6 285C447.6 373 369.2 450.6 281.5 487.6C193.8 524.5 96.9 520.7 0 517L0 0Z" fill="#F3F6FB"></path></g></svg>